<?xml version="1.0" encoding="utf-8"?>
<!-- Generator: Adobe Adobe Illustrator 29.2.0, SVG Export Plug-In . SVG Version: 6.00 Build 0)  -->
<svg version="1.1" xmlns="http://www.w3.org/2000/svg" xmlns:xlink="http://www.w3.org/1999/xlink" x="0px" y="0px" width="250px"
	 height="50px" viewBox="0 0 250 50" style="enable-background:new 0 0 250 50;" xml:space="preserve">
<style type="text/css">
	.st0{fill:#483D8B;}
	.st1{fill:#FCBE24;}
</style>
<g id="BG">
</g>
<g id="Emblems">
</g>
<g id="Text">
	<g>
		<g>
			<g>
				<path class="st0" d="M48.34,41.72c-0.37-0.25-0.71-0.6-1.01-1.06c-0.3-0.46-0.55-1.01-0.75-1.64c-0.2-0.63-0.3-1.34-0.3-2.11
					c0-1.49,0.16-3.1,0.49-4.81c0.32-1.72,0.74-3.44,1.25-5.17c0.51-1.73,1.07-3.42,1.68-5.06c0.61-1.64,1.19-3.13,1.74-4.46
					c0.55-1.33,1.03-2.46,1.45-3.4c0.42-0.93,0.71-1.56,0.86-1.88c0.15-0.3,0.1-0.63-0.13-0.99c-0.24-0.36-0.57-0.72-1.01-1.06
					c-0.44-0.35-0.94-0.68-1.51-1.01c-0.57-0.32-1.12-0.61-1.64-0.86c-0.52-0.25-0.99-0.45-1.4-0.6c-0.41-0.15-0.67-0.22-0.77-0.22
					v0.04L47.22,7.5V7.39c-2.84,5.75-5.42,10.66-7.76,14.74c-0.99,1.74-1.99,3.39-2.99,4.94c-1,1.56-1.92,2.83-2.76,3.83
					c-0.85,0.99-1.57,1.63-2.18,1.9c-0.61,0.27-1.04,0.01-1.29-0.78c0.27-2.24,0.77-4.38,1.47-6.42c0.71-2.04,1.44-3.89,2.18-5.54
					c0.75-1.65,1.41-3.07,1.98-4.24c0.57-1.17,0.86-1.98,0.86-2.43c0-0.4-0.19-0.89-0.58-1.47s-0.85-1.16-1.38-1.74
					c-0.54-0.57-1.08-1.09-1.64-1.55c-0.56-0.46-1.01-0.79-1.36-0.99c-0.5-0.47-1.08-0.9-1.75-1.29c-0.67-0.39-1.33-0.58-1.98-0.58
					c-0.7,0-1.58,0.12-2.65,0.37c-1.07,0.25-2.21,0.57-3.42,0.97c-1.21,0.4-2.44,0.86-3.69,1.4c-1.26,0.54-2.4,1.09-3.43,1.66
					c-1.03,0.57-1.91,1.14-2.63,1.72c-0.72,0.57-1.17,1.11-1.34,1.61c-0.22,0.77-0.31,1.61-0.24,2.5s0.21,1.73,0.43,2.5
					c0.22,0.77,0.48,1.41,0.78,1.92c0.3,0.51,0.55,0.77,0.75,0.77c0.2,0,0.44-0.02,0.71-0.07c0.27-0.05,0.54-0.11,0.78-0.19
					c0.25-0.07,0.44-0.17,0.58-0.28c0.14-0.11,0.17-0.23,0.09-0.35c-0.05-0.07-0.12-0.11-0.21-0.09c-0.09,0.01-0.17,0.01-0.24-0.02
					c-0.07-0.02-0.14-0.1-0.21-0.22c-0.06-0.12-0.09-0.36-0.09-0.71c0-0.22,0.23-0.59,0.69-1.1s1.07-1.08,1.83-1.72
					c0.76-0.63,1.64-1.29,2.63-1.96c0.99-0.67,2.03-1.29,3.1-1.85c1.07-0.56,2.15-1.02,3.23-1.38c1.08-0.36,2.1-0.54,3.04-0.54
					c0.72,0,1.28,0.05,1.68,0.15c-0.32,0.85-0.72,1.85-1.18,3.02c-0.46,1.17-0.94,2.43-1.44,3.77c-0.5,1.34-1,2.73-1.51,4.16
					c-0.51,1.43-0.97,2.82-1.36,4.18c-0.4,1.36-0.72,2.64-0.97,3.86c-0.25,1.22-0.37,2.28-0.37,3.17c0,0.47,0.22,1.01,0.67,1.61
					c0.45,0.6,0.97,1.17,1.57,1.72c0.6,0.55,1.2,1.03,1.81,1.44c0.61,0.41,1.09,0.65,1.44,0.73c0.3,0.32,0.66,0.49,1.08,0.49
					c0.97,0,1.88-0.27,2.72-0.82c0.85-0.55,1.66-1.29,2.43-2.22c0.77-0.93,1.5-2.01,2.2-3.23c0.7-1.22,1.39-2.49,2.09-3.83
					c0.7-1.33,1.39-2.68,2.07-4.05c0.68-1.37,1.4-2.66,2.15-3.88c-0.42,1.34-0.89,2.68-1.4,3.99c-0.51,1.32-0.99,2.64-1.44,3.96
					c-0.45,1.32-0.83,2.65-1.14,3.99c-0.31,1.34-0.47,2.71-0.47,4.1c0,0.72,0.3,1.46,0.9,2.22c0.6,0.76,1.33,1.44,2.2,2.05
					c0.87,0.61,1.8,1.11,2.78,1.49c0.98,0.39,1.86,0.58,2.63,0.58c0.47,0,0.86-0.07,1.16-0.21c0.3-0.14,0.51-0.29,0.65-0.47
					c0.14-0.17,0.2-0.32,0.19-0.45c-0.01-0.13-0.09-0.19-0.24-0.19C49.07,42.08,48.71,41.97,48.34,41.72z"/>
			</g>
			<g>
				<path class="st0" d="M67.73,19.59c-0.78-0.57-1.55-1.03-2.31-1.36c-0.76-0.34-1.32-0.5-1.67-0.5c-0.27,0-0.58,0.14-0.93,0.41
					c-0.35,0.27-0.72,0.64-1.11,1.1c-0.39,0.46-0.8,0.99-1.22,1.6c-0.42,0.61-0.83,1.26-1.22,1.96c0.52-1.37,1.05-2.69,1.59-3.98
					c0.54-1.28,1.03-2.48,1.45-3.58c0.42-1.11,0.77-2.1,1.04-2.97c0.27-0.87,0.41-1.57,0.41-2.09c0-0.37-0.27-0.77-0.8-1.18
					c-0.53-0.41-1.13-0.78-1.8-1.12c-0.67-0.34-1.31-0.61-1.93-0.82c-0.62-0.21-1-0.32-1.15-0.32c0,0.22-0.12,0.71-0.37,1.45
					c-0.25,0.75-0.57,1.66-0.97,2.74c-0.4,1.08-0.85,2.29-1.36,3.64s-1.03,2.72-1.57,4.14c-0.54,1.42-1.06,2.84-1.57,4.25
					c-0.51,1.42-0.96,2.74-1.36,3.96c-0.4,1.22-0.72,2.31-0.97,3.27c-0.25,0.96-0.37,1.7-0.37,2.22c0,0.1,0.13,0.29,0.39,0.58
					c0.26,0.29,0.6,0.6,1.01,0.95c0.41,0.35,0.87,0.71,1.36,1.08c0.5,0.37,0.98,0.7,1.46,0.97c0.47,0.27,0.9,0.47,1.27,0.6
					c0.37,0.12,0.65,0.1,0.82-0.08c0.05-0.12,0.11-0.27,0.19-0.45c0.05-0.13,0.11-0.29,0.19-0.49c0.07-0.2,0.17-0.42,0.3-0.67
					c0.37,0.47,0.98,0.91,1.83,1.32c0.85,0.41,1.99,0.62,3.43,0.62c0.6,0,1.23-0.24,1.9-0.73c0.67-0.48,1.34-1.12,2-1.9
					c0.66-0.78,1.29-1.65,1.88-2.61c0.6-0.96,1.13-1.92,1.59-2.87c0.46-0.96,0.83-1.86,1.1-2.72c0.27-0.86,0.41-1.56,0.41-2.11
					c0-0.82-0.29-1.61-0.88-2.35C69.19,20.82,68.51,20.17,67.73,19.59z M64.85,22.5c-0.24,0.72-0.55,1.54-0.93,2.46
					c-0.39,0.92-0.83,1.88-1.33,2.87c-0.5,1-1.02,1.91-1.57,2.74s-1.09,1.52-1.62,2.05c-0.53,0.54-1.03,0.8-1.47,0.8
					c-0.3,0-0.53-0.07-0.71-0.22c0.32-0.75,0.69-1.59,1.1-2.54c0.41-0.94,0.84-1.91,1.29-2.91c0.45-0.99,0.91-1.96,1.38-2.89
					c0.47-0.93,0.92-1.77,1.34-2.52c0.42-0.75,0.82-1.34,1.2-1.79s0.7-0.67,0.97-0.67c0.22,0,0.4,0.07,0.52,0.22
					c0.12,0.15,0.19,0.44,0.19,0.86C65.21,21.27,65.09,21.78,64.85,22.5z"/>
			</g>
			<g>
				<path class="st0" d="M112.92,24.56c0.04-0.35,0.02-0.65-0.04-0.9c-0.06-0.25-0.15-0.46-0.26-0.63
					c-0.11-0.17-0.22-0.36-0.32-0.56c-1.52,1.82-2.99,3.55-4.4,5.19c-0.6,0.7-1.22,1.41-1.87,2.13c-0.65,0.72-1.28,1.42-1.9,2.09
					c-0.62,0.67-1.21,1.3-1.77,1.87c-0.56,0.57-1.48,1.49-1.51,1.46c-0.08-0.07,0.74-2.64,1.32-4.03c0.58-1.39,1.18-2.71,1.79-3.94
					c0.61-1.23,1.18-2.31,1.7-3.23s0.86-1.55,1.01-1.9c0.1-0.2,0.06-0.47-0.13-0.8c-0.19-0.34-0.44-0.68-0.77-1.04
					c-0.32-0.36-0.7-0.73-1.14-1.12c-0.43-0.39-0.85-0.73-1.25-1.04s-0.76-0.57-1.08-0.77c-0.32-0.2-0.55-0.32-0.67-0.37h-0.04
					h-0.04c-0.1,0-0.31,0.03-0.63,0.09c-0.32,0.06-0.71,0.15-1.16,0.28c-0.45,0.12-0.93,0.27-1.44,0.43
					c-0.51,0.16-0.99,0.34-1.44,0.54c0.45-1.02,0.92-1.96,1.42-2.82c0.5-0.86,0.87-1.55,1.12-2.07c0.15-0.32-0.01-0.7-0.47-1.14
					c-0.46-0.44-1.01-0.86-1.66-1.27c-0.65-0.41-1.28-0.76-1.88-1.04c-0.61-0.29-0.98-0.43-1.1-0.43c0,0.15-0.22,0.54-0.65,1.16
					c-0.44,0.62-0.91,1.34-1.44,2.17c-0.52,0.82-1,1.67-1.44,2.56c-0.44,0.88-0.65,1.67-0.65,2.37c0,0.42,0.27,0.9,0.8,1.44
					c0.53,0.53,1.15,1.04,1.85,1.51l-1.56,2.24c0,0,0,0,0,0c-0.37,0.57-0.85,1.24-1.44,2s-1.22,1.54-1.9,2.35
					c-0.68,0.81-1.4,1.61-2.15,2.39c-0.75,0.78-1.49,1.49-2.22,2.11c-0.73,0.62-1.42,1.13-2.07,1.51c-0.65,0.39-1.22,0.59-1.72,0.62
					c-0.45,0.03-0.88-0.04-1.29-0.19c-0.41-0.15-0.78-0.37-1.1-0.67c-0.32-0.3-0.57-0.66-0.75-1.08c-0.17-0.42-0.25-0.9-0.22-1.42
					c0.02-0.35,0.06-0.65,0.09-0.89c0.04-0.25,0.08-0.48,0.13-0.69c0.05-0.21,0.12-0.43,0.19-0.65c0.09-0.32,0.2-0.76,0.22-0.75
					c0.04,0.01,0.06,0.65,1.18,1.36c0.58,0.37,1.44,0.54,2.56,0.54c1.02,0,1.91-0.21,2.69-0.62c0.77-0.41,1.42-0.93,1.94-1.57
					c0.52-0.63,0.93-1.35,1.21-2.15c0.29-0.8,0.45-1.59,0.5-2.39c0-0.7-0.09-1.27-0.26-1.72c-0.17-0.45-0.38-0.8-0.62-1.04
					c-0.24-0.25-0.48-0.42-0.73-0.52c-0.25-0.1-0.46-0.15-0.63-0.15c-0.27-0.32-0.67-0.66-1.19-1.01c-0.52-0.35-1.07-0.67-1.64-0.95
					c-0.57-0.29-1.11-0.52-1.6-0.71c-0.5-0.19-0.85-0.28-1.05-0.28c-0.7,0.03-1.53,0.39-2.5,1.1c-0.97,0.71-1.9,1.66-2.78,2.84
					c-0.88,1.18-1.64,2.56-2.28,4.14c-0.63,1.58-0.95,3.27-0.95,5.06c0,1.27,0.29,2.36,0.88,3.27c0.58,0.91,1.32,1.65,2.2,2.24
					c0.88,0.58,1.83,1.01,2.84,1.29c1.01,0.27,1.93,0.41,2.78,0.41c0.7,0,1.47-0.24,2.33-0.73c0.86-0.48,1.74-1.11,2.63-1.87
					c0.9-0.76,1.79-1.6,2.69-2.52c0.9-0.92,1.72-1.83,2.46-2.72c0.75-0.89,1.4-1.72,1.96-2.46c0.51-0.69,0.88-1.21,1.13-1.6
					l2.17-2.84c0.55,0.25,0.88,0.37,1.01,0.37c0.1-0.08,0.28-0.18,0.54-0.32c0.26-0.14,0.57-0.29,0.93-0.45
					c0.36-0.16,0.75-0.32,1.18-0.49c0.42-0.16,0.83-0.3,1.23-0.43c-0.5,1.04-1.04,2.2-1.62,3.45s-1.13,2.5-1.62,3.73
					c-0.5,1.23-0.91,2.4-1.25,3.51c-0.34,1.11-0.5,2.03-0.5,2.78c0,0.35,0.17,0.73,0.52,1.14c0.35,0.41,0.78,0.82,1.29,1.21
					c0.51,0.4,1.04,0.77,1.59,1.12c0.55,0.35,1.03,0.62,1.46,0.82c0.3,0.17,0.55,0.27,0.75,0.3c0.05,0.03,0.11,0.04,0.19,0.04h0.11
					c0.15,0,0.43-0.19,0.84-0.56c0.41-0.37,0.91-0.86,1.49-1.45c0.58-0.6,1.22-1.28,1.92-2.05c0.7-0.77,1.41-1.55,2.13-2.35
					c1.67-1.89,3.51-4.04,5.52-6.46C112.78,25.35,112.88,24.9,112.92,24.56z M79.05,23.53c0.62-0.78,1.24-1.42,1.85-1.92
					c0.61-0.5,1.17-0.87,1.68-1.12c0.51-0.25,0.89-0.37,1.14-0.37c0.27,0,0.48,0.07,0.63,0.22c-0.15,0.6-0.39,1.27-0.71,2.02
					c-0.32,0.75-0.72,1.45-1.2,2.11c-0.47,0.66-1.01,1.21-1.62,1.64c-0.61,0.43-1.28,0.65-2,0.65c-0.35,0-0.63-0.04-0.86-0.11
					c-0.22-0.07-0.4-0.17-0.52-0.3C77.9,25.25,78.43,24.31,79.05,23.53z"/>
			</g>
			<g>
				<path class="st0" d="M140.89,37.41c-0.4-0.73-0.85-1.4-1.36-2s-1.06-1.08-1.64-1.45c-0.59-0.37-1.18-0.56-1.77-0.56
					c-0.57,0-1.36,0.09-2.35,0.26c-0.99,0.17-2.11,0.39-3.34,0.65c-1.23,0.26-2.54,0.53-3.92,0.8c-1.38,0.27-3.97,0.69-4.09,0.67
					c0.04-0.11,2.05-2.13,3.23-3.34c1.18-1.21,2.39-2.44,3.64-3.69c1.24-1.26,2.46-2.51,3.66-3.77c1.2-1.26,2.3-2.46,3.3-3.62
					c1.01-1.16,1.87-2.23,2.59-3.21s1.21-1.83,1.49-2.52c0.25-0.61,0.12-1.34,0.15-1.34c0.09-0.02,1.33,0.86,1.83,1.31
					c0.27,0.25,0.51,0.49,0.71,0.71c0.32-0.32,0.49-0.76,0.5-1.31c0.01-0.55-0.09-1.14-0.32-1.77c-0.22-0.63-0.55-1.27-0.99-1.9
					c-0.43-0.63-0.92-1.21-1.45-1.73c-0.54-0.52-1.1-0.95-1.7-1.27c-0.6-0.32-1.2-0.48-1.79-0.48c-0.6,0-1.37,0.06-2.33,0.19
					c-0.96,0.13-2,0.29-3.13,0.49c-1.13,0.2-2.3,0.4-3.49,0.62c-1.2,0.21-2.33,0.42-3.42,0.62c-1.08,0.2-2.05,0.36-2.91,0.48
					c-0.86,0.13-1.51,0.19-1.96,0.19c-0.67,0-1.28-0.06-1.83-0.19c-0.55-0.12-1.03-0.27-1.46-0.45c-0.47-0.2-0.89-0.42-1.27-0.67
					c-0.27,0.27-0.39,0.68-0.36,1.21c0.04,0.53,0.19,1.12,0.47,1.75c0.27,0.63,0.63,1.29,1.06,1.98c0.43,0.68,0.91,1.3,1.44,1.85
					c0.52,0.55,1.06,1,1.62,1.36c0.56,0.36,1.09,0.54,1.59,0.54c0.62,0,1.47-0.15,2.54-0.45c1.07-0.3,2.22-0.65,3.45-1.06
					c1.23-0.41,2.47-0.82,3.71-1.23c1.24-0.41,3.35-1,3.4-0.95c0.04,0.04-1.55,2.52-2.71,3.98c-1.16,1.45-2.43,2.94-3.83,4.44
					c-1.39,1.51-2.85,2.99-4.37,4.46c-1.52,1.47-2.96,2.8-4.33,3.99c-1.37,1.19-2.6,2.21-3.69,3.06s-1.93,1.39-2.5,1.64
					c-0.37,0-0.68-0.14-0.91-0.41c-0.24-0.27-0.44-0.57-0.61-0.9c-0.17-0.32-0.32-0.59-0.43-0.8c-0.11-0.21-0.22-0.27-0.32-0.17
					c-0.2,0.2-0.35,0.5-0.47,0.91c-0.11,0.41-0.19,0.84-0.24,1.29c-0.05,0.45-0.07,0.86-0.07,1.25s0.02,0.63,0.07,0.73
					c0.17,0.55,0.44,1.13,0.78,1.75c0.35,0.62,0.75,1.2,1.21,1.73c0.46,0.54,0.96,0.98,1.51,1.33c0.55,0.35,1.09,0.52,1.64,0.52
					c0.94,0,2.08-0.07,3.4-0.2c1.32-0.14,2.7-0.31,4.14-0.5c1.44-0.2,2.9-0.42,4.37-0.65c1.47-0.24,2.84-0.45,4.11-0.65
					c1.27-0.2,2.37-0.37,3.32-0.5c0.94-0.14,1.63-0.21,2.05-0.21c0.62,0,1.23,0.14,1.83,0.43c0.6,0.29,1.13,0.6,1.61,0.95
					c0.55,0.4,1.07,0.85,1.57,1.34c0.32-0.32,0.5-0.78,0.52-1.38c0.02-0.6-0.06-1.25-0.26-1.96
					C141.59,38.87,141.29,38.15,140.89,37.41z"/>
			</g>
			<g>
				<path class="st0" d="M222.69,15.66c-0.42-1.18-0.98-2.16-1.68-2.93c-0.7-0.77-1.46-1.34-2.29-1.72
					c-0.83-0.37-1.61-0.56-2.33-0.56c-0.97,0-1.98,0.19-3.02,0.58c-1.04,0.39-2.01,0.99-2.89,1.81c-0.88,0.82-1.64,1.88-2.26,3.19
					c-0.62,1.31-0.98,2.88-1.08,4.72c-0.05,0.92,0.07,1.73,0.31,2.46c-0.99,1.29-1.97,2.55-2.92,3.73c-0.47,0.6-0.96,1.21-1.47,1.83
					c-0.51,0.62-1.01,1.23-1.51,1.83c-0.5,0.6-0.99,1.16-1.47,1.7c-0.48,0.54-1.28,1.43-1.32,1.4c-0.07-0.05,0.6-2.4,1.04-3.62
					c0.45-1.22,0.91-2.36,1.38-3.43s0.91-2,1.33-2.78c0.41-0.78,0.69-1.35,0.84-1.7c0.15-0.32-0.01-0.71-0.47-1.16
					c-0.46-0.45-1.01-0.87-1.66-1.27c-0.65-0.4-1.28-0.74-1.88-1.03c-0.61-0.29-0.98-0.43-1.1-0.43c0,0.1-0.09,0.34-0.26,0.73
					c-0.17,0.39-0.42,0.88-0.75,1.47c-0.12,0.2-0.25,0.42-0.37,0.67c-0.12,0.25-0.27,0.51-0.45,0.78c-0.37-0.45-0.89-0.88-1.57-1.29
					c-0.67-0.41-1.38-0.76-2.13-1.06c-0.75-0.3-1.47-0.54-2.18-0.73s-1.29-0.28-1.74-0.28c-0.3,0-0.65,0.2-1.06,0.6
					c-0.41,0.4-0.85,0.93-1.31,1.59c-0.38,0.54-0.74,1.19-1.1,1.86c-0.93,1.21-1.85,2.4-2.69,3.5c-0.45,0.57-0.9,1.14-1.36,1.7
					s-0.9,1.09-1.32,1.61c-0.42,0.51-0.83,0.97-1.21,1.38c-0.39,0.41-0.94,1.03-0.95,0.99c-0.05-0.14,0.49-2.38,0.88-3.71
					c0.39-1.33,0.8-2.66,1.25-3.99c0.45-1.33,0.91-2.62,1.38-3.88c0.47-1.26,0.91-2.4,1.32-3.43c0.41-1.03,0.77-1.9,1.08-2.61
					c0.31-0.71,0.52-1.18,0.62-1.4c0.15-0.32-0.02-0.73-0.5-1.23c-0.48-0.5-1.07-0.97-1.75-1.42c-0.68-0.45-1.36-0.8-2.02-1.06
					c-0.66-0.26-1.09-0.33-1.29-0.2c-0.3,0.95-0.68,1.99-1.16,3.13c-0.47,1.14-0.95,2.26-1.42,3.34c-0.47,1.08-0.91,2.06-1.33,2.93
					c-0.41,0.87-0.72,1.51-0.91,1.9c-0.25-0.4-0.64-0.75-1.18-1.06c-0.54-0.31-1.13-0.56-1.77-0.75c-0.65-0.19-1.29-0.33-1.94-0.43
					c-0.65-0.1-1.21-0.15-1.68-0.15c-0.3,0-0.67,0.18-1.12,0.54c-0.45,0.36-0.92,0.87-1.42,1.51c-0.5,0.65-1,1.41-1.49,2.3
					c-0.5,0.88-0.95,1.84-1.36,2.87c-0.1,0.26-0.15,0.56-0.25,0.82c-0.29,0.37-0.6,0.77-0.89,1.14c-0.47,0.6-0.96,1.21-1.47,1.83
					c-0.51,0.62-1.01,1.23-1.51,1.83c-0.5,0.6-0.99,1.16-1.47,1.7c-0.48,0.54-1.32,1.43-1.32,1.4c-0.04-0.14,0.6-2.4,1.04-3.62
					c0.45-1.22,0.91-2.36,1.38-3.43s0.91-2,1.33-2.78c0.41-0.78,0.69-1.35,0.84-1.7c0.15-0.32-0.01-0.71-0.47-1.16
					c-0.46-0.45-1.01-0.87-1.66-1.27c-0.65-0.4-1.28-0.74-1.88-1.03c-0.61-0.29-0.98-0.43-1.1-0.43c0,0.1-0.09,0.34-0.26,0.73
					c-0.17,0.39-0.42,0.88-0.75,1.47c-0.12,0.2-0.25,0.42-0.37,0.67c-0.12,0.25-0.27,0.51-0.45,0.78c-0.37-0.45-0.89-0.88-1.57-1.29
					c-0.67-0.41-1.38-0.76-2.13-1.06c-0.75-0.3-1.47-0.54-2.18-0.73s-1.29-0.28-1.74-0.28c-0.3,0-0.65,0.2-1.06,0.6
					c-0.41,0.4-0.85,0.93-1.31,1.59c-0.46,0.66-0.91,1.42-1.34,2.28c-0.44,0.86-0.83,1.74-1.2,2.63c-0.36,0.9-0.65,1.79-0.86,2.67
					c-0.21,0.88-0.32,1.69-0.32,2.41c0,0.42,0.27,0.89,0.8,1.4c0.54,0.51,1.17,0.99,1.9,1.45c0.73,0.46,1.49,0.88,2.26,1.27
					c0.77,0.39,1.4,0.68,1.9,0.88c0.25,0.15,0.5,0.22,0.75,0.22c0.17,0,0.48-0.31,0.91-0.93c0.43-0.62,1.42-2.33,1.51-2.39v0.3
					c0,0.3,0.15,0.63,0.45,1.01c0.3,0.37,0.67,0.75,1.12,1.12c0.45,0.37,0.93,0.73,1.44,1.06c0.51,0.34,0.98,0.62,1.4,0.84
					c0.22,0.17,0.47,0.32,0.73,0.43c0.26,0.11,0.49,0.17,0.69,0.17c0.12,0,0.38-0.19,0.77-0.56c0.38-0.37,0.84-0.86,1.36-1.45
					c0.52-0.6,1.09-1.28,1.72-2.05c0.62-0.77,0.76-0.95,1.38-1.78c0.02-0.03,0.51-0.73,0.56-0.7c0.03,0.01-0.02,0.51-0.04,0.75
					c-0.02,0.35,0.15,0.66,0.44,0.98c0.3,0.32,0.68,0.63,1.16,0.91c0.47,0.29,0.98,0.55,1.53,0.8c0.55,0.25,1.07,0.46,1.57,0.63
					c0.5,0.17,0.93,0.31,1.31,0.41c0.37,0.1,0.61,0.15,0.71,0.15c0.1,0,0.28-0.15,0.54-0.45c0.26-0.3,0.57-0.71,0.93-1.23
					c0.36-0.52,0.76-1.14,1.19-1.86c0.44-0.72,0.9-1.49,1.4-2.31c-0.22,1.17-0.34,2.14-0.34,2.91c0,0.42,0.29,0.83,0.86,1.23
					c0.57,0.4,1.23,0.75,1.96,1.06c0.73,0.31,1.45,0.56,2.15,0.75c0.7,0.19,1.16,0.29,1.38,0.32h0.04h0.04
					c0.07,0,0.27-0.17,0.58-0.5c0.31-0.34,0.7-0.78,1.16-1.34c0.46-0.56,0.97-1.19,1.55-1.9c0.57-0.71,1.14-1.44,1.72-2.18
					c0.12-0.15,0.34-0.48,0.37-0.47c0.03,0.01-0.14,0.75-0.14,1.07c0,0.42,0.27,0.89,0.8,1.4c0.54,0.51,1.17,0.99,1.9,1.45
					c0.73,0.46,1.49,0.88,2.26,1.27c0.77,0.39,1.4,0.68,1.9,0.88c0.25,0.15,0.5,0.22,0.75,0.22c0.17,0,0.48-0.31,0.91-0.93
					c0.43-0.62,1.46-2.39,1.51-2.39c0.02,0-0.07,0.32,0.09,0.74c0.11,0.28,0.39,0.63,0.62,0.87c0.33,0.35,0.41,0.44,0.86,0.82
					c0.45,0.37,0.93,0.73,1.44,1.06c0.51,0.34,0.98,0.62,1.4,0.84c0.22,0.17,0.47,0.32,0.73,0.43c0.26,0.11,0.49,0.17,0.69,0.17
					c0.12,0,0.38-0.19,0.77-0.56c0.38-0.37,0.84-0.86,1.36-1.45c0.52-0.6,1.09-1.28,1.72-2.05c0.62-0.77,1.24-1.57,1.87-2.39
					c1.32-1.7,2.8-3.65,4.38-5.78c0.03,0.03,0.05,0.07,0.08,0.11c0.51,0.55,1.08,0.96,1.72,1.23c0.63,0.27,1.28,0.4,1.92,0.37
					c0.92-0.05,1.81-0.32,2.67-0.8c0.86-0.49,2.35-1.62,2.37-1.59c0.03,0.04-0.85,2.22-1.44,3.28c-0.58,1.07-1.22,2.02-1.9,2.85
					c-0.68,0.83-1.39,1.51-2.11,2.02c-0.72,0.51-1.4,0.77-2.05,0.77c-0.6,0-1.06-0.15-1.4-0.47c-0.34-0.31-0.6-0.65-0.8-1.03
					c-0.2-0.37-0.37-0.72-0.5-1.03c-0.14-0.31-0.32-0.47-0.54-0.47c-0.15,0-0.3,0.16-0.45,0.48c-0.15,0.32-0.25,0.73-0.3,1.21
					c-0.05,0.49-0.02,1.01,0.09,1.57c0.11,0.56,0.37,1.08,0.76,1.57c0.4,0.48,0.96,0.89,1.7,1.21c0.73,0.32,1.68,0.49,2.85,0.49
					c1.27,0,2.58-0.47,3.94-1.42c1.36-0.95,2.61-2.21,3.75-3.81c1.14-1.59,2.1-3.43,2.87-5.5c0.77-2.08,1.22-4.25,1.34-6.51
					C223.29,18.25,223.12,16.84,222.69,15.66z M150.65,25.27c-0.53,0.87-1.08,1.72-1.62,2.56c-0.55,0.83-1.08,1.62-1.59,2.35
					c-0.51,0.73-0.97,1.35-1.36,1.85c-0.4,0.5-0.72,0.83-0.95,0.99c-0.24,0.16-0.37,0.11-0.39-0.17c0.07-0.5,0.22-1.1,0.43-1.81
					c0.21-0.71,0.47-1.46,0.78-2.24s0.66-1.55,1.05-2.31c0.38-0.76,0.78-1.44,1.19-2.05c0.41-0.61,0.82-1.1,1.23-1.47
					s0.81-0.56,1.21-0.56c0.3,0,0.58,0.04,0.84,0.11s0.49,0.17,0.69,0.3C151.69,23.57,151.18,24.39,150.65,25.27z M173.11,22.67
					c-0.09,0.31-0.17,0.62-0.24,0.91c-0.57,0.97-1.17,1.93-1.79,2.89c-0.62,0.96-1.22,1.87-1.79,2.72
					c-0.57,0.86-1.12,1.64-1.64,2.35s-1.35,1.75-1.38,1.73c-0.06-0.03,0-2.22,0.62-4.07c0.47-1.4,0.93-2.72,1.55-3.92
					c0.62-1.19,1.3-2.18,2.03-2.97c0.73-0.78,1.41-1.18,2.03-1.18c0.25,0,0.44,0.06,0.58,0.19c0.14,0.12,0.26,0.26,0.36,0.41
					C173.31,22.06,173.2,22.36,173.11,22.67z M194.35,25.27c-0.53,0.87-1.08,1.72-1.62,2.56c-0.55,0.83-1.08,1.62-1.59,2.35
					c-0.51,0.73-0.97,1.35-1.36,1.85c-0.4,0.5-0.72,0.83-0.95,0.99c-0.24,0.16-0.37,0.11-0.39-0.17c0.07-0.5,0.22-1.1,0.43-1.81
					c0.21-0.71,0.47-1.46,0.78-2.24c0.31-0.78,0.66-1.55,1.05-2.31c0.38-0.76,0.78-1.44,1.19-2.05c0.41-0.61,0.82-1.1,1.23-1.47
					s0.81-0.56,1.21-0.56c0.3,0,0.58,0.04,0.84,0.11s0.49,0.17,0.69,0.3C195.39,23.57,194.88,24.39,194.35,25.27z M217.26,21.76
					c-0.39,0.47-0.8,0.91-1.25,1.31c-0.45,0.4-0.9,0.72-1.34,0.95c-0.45,0.24-0.82,0.34-1.12,0.32c-0.4-0.02-0.72-0.2-0.95-0.52
					c-0.24-0.32-0.42-0.7-0.54-1.14c-0.12-0.44-0.21-0.88-0.24-1.34c-0.04-0.46-0.04-0.83-0.02-1.1c0.02-0.77,0.24-1.52,0.65-2.26
					c0.41-0.73,0.88-1.36,1.4-1.88c0.52-0.52,1.04-0.88,1.57-1.06c0.52-0.19,0.93-0.13,1.23,0.17c0.55,0.57,0.94,1.26,1.19,2.07
					c0.25,0.81,0.35,1.83,0.3,3.08C217.94,20.81,217.65,21.28,217.26,21.76z"/>
			</g>
			<g>
				<path class="st0" d="M238.85,15.66c-0.42-1.18-0.98-2.16-1.68-2.93c-0.7-0.77-1.46-1.34-2.29-1.72
					c-0.83-0.37-1.61-0.56-2.33-0.56c-0.97,0-1.98,0.19-3.02,0.58s-2.01,0.99-2.89,1.81c-0.88,0.82-1.64,1.88-2.26,3.19
					c-0.62,1.31-0.98,2.88-1.08,4.72c-0.05,1.02,0.07,1.92,0.37,2.71s0.7,1.45,1.21,2c0.51,0.55,1.08,0.96,1.72,1.23
					c0.63,0.27,1.28,0.4,1.92,0.37c0.92-0.05,1.81-0.32,2.67-0.8c0.86-0.49,2.29-1.64,2.37-1.59c0.13,0.08-0.85,2.22-1.44,3.28
					c-0.58,1.07-1.22,2.02-1.9,2.85c-0.68,0.83-1.39,1.51-2.11,2.02c-0.72,0.51-1.4,0.77-2.05,0.77c-0.6,0-1.06-0.15-1.4-0.47
					c-0.34-0.31-0.6-0.65-0.8-1.03c-0.2-0.37-0.37-0.72-0.5-1.03c-0.14-0.31-0.32-0.47-0.54-0.47c-0.15,0-0.3,0.16-0.45,0.48
					c-0.15,0.32-0.25,0.73-0.3,1.21c-0.05,0.49-0.02,1.01,0.09,1.57c0.11,0.56,0.37,1.08,0.76,1.57c0.4,0.48,0.96,0.89,1.7,1.21
					c0.73,0.32,1.68,0.49,2.85,0.49c1.27,0,2.58-0.47,3.94-1.42c1.36-0.95,2.61-2.21,3.75-3.81c1.14-1.59,2.1-3.43,2.87-5.5
					c0.77-2.08,1.22-4.25,1.34-6.51C239.45,18.25,239.28,16.84,238.85,15.66z M233.42,21.76c-0.39,0.47-0.8,0.91-1.25,1.31
					c-0.45,0.4-0.9,0.72-1.34,0.95c-0.45,0.24-0.82,0.34-1.12,0.32c-0.4-0.02-0.72-0.2-0.95-0.52c-0.24-0.32-0.42-0.7-0.54-1.14
					c-0.12-0.44-0.21-0.88-0.24-1.34c-0.04-0.46-0.04-0.83-0.02-1.1c0.02-0.77,0.24-1.52,0.65-2.26c0.41-0.73,0.88-1.36,1.4-1.88
					c0.52-0.52,1.04-0.88,1.57-1.06c0.52-0.19,0.93-0.13,1.23,0.17c0.55,0.57,0.94,1.26,1.19,2.07c0.25,0.81,0.35,1.83,0.3,3.08
					C234.1,20.81,233.81,21.28,233.42,21.76z"/>
			</g>
		</g>
		<g>
			<g>
				<path class="st1" d="M47.67,46.47c-1.16,0-2.43-0.27-3.77-0.79c-1.2-0.47-2.35-1.09-3.42-1.84c-1.12-0.79-2.09-1.69-2.86-2.68
					c-0.53-0.67-0.92-1.36-1.18-2.07c-0.66,0.66-1.36,1.22-2.07,1.69c-2.17,1.41-5.02,1.93-7.05,0.48c-0.49-0.2-1.01-0.5-1.62-0.9
					c-0.73-0.5-1.46-1.07-2.17-1.72c-0.74-0.68-1.4-1.4-1.96-2.15c-0.85-1.13-1.29-2.31-1.29-3.47c0-1.11,0.14-2.36,0.44-3.79
					c0.26-1.29,0.61-2.67,1.03-4.12c0.42-1.41,0.89-2.86,1.42-4.35c0.51-1.44,1.02-2.84,1.52-4.2c0.25-0.68,0.5-1.34,0.74-1.98
					c-0.58,0.23-1.15,0.5-1.72,0.8c-0.97,0.51-1.9,1.06-2.8,1.67c-0.9,0.61-1.69,1.2-2.37,1.77c-0.28,0.23-0.53,0.46-0.77,0.67
					c0.38,1.31-0.05,2.69-1.14,3.58c-0.44,0.36-1,0.65-1.65,0.84c-0.35,0.11-0.72,0.2-1.11,0.27c-0.49,0.09-0.91,0.13-1.27,0.13
					c-1.38,0-2.54-0.78-3.43-2.31c-0.43-0.73-0.79-1.6-1.08-2.63c-0.28-0.96-0.46-2.02-0.54-3.14c-0.09-1.27,0.03-2.48,0.36-3.59
					c0.43-1.24,1.2-2.22,2.4-3.17c0.85-0.67,1.88-1.35,3.05-2c1.11-0.62,2.36-1.22,3.72-1.8C18.4,5.1,19.72,4.6,21,4.17
					c1.3-0.43,2.53-0.78,3.68-1.05c2.97-0.69,4.83-0.64,6.88,0.54c0.77,0.44,1.47,0.94,2.08,1.49c0.4,0.26,0.9,0.62,1.46,1.08
					c0.66,0.54,1.3,1.15,1.93,1.82c0.66,0.7,1.23,1.42,1.71,2.15c0.73,1.12,1.09,2.16,1.09,3.19c0,0.95-0.32,2-1.08,3.6
					c1.69-3.1,3.5-6.61,5.42-10.48v-2.2l3.11-0.04c0.58,0,1.11,0.15,1.83,0.41c0.49,0.18,1.05,0.41,1.67,0.71
					c0.59,0.28,1.2,0.6,1.84,0.96c0.73,0.41,1.37,0.85,1.93,1.29c0.69,0.55,1.25,1.15,1.66,1.79c0.85,1.29,0.96,2.78,0.32,4.08
					l-0.78,1.71c-0.44,0.98-0.91,2.08-1.45,3.37c-0.53,1.3-1.1,2.75-1.69,4.36c-0.59,1.58-1.12,3.2-1.61,4.86
					c-0.48,1.61-0.87,3.25-1.18,4.87c-0.29,1.52-0.43,2.95-0.43,4.24c0,0.45,0.05,0.84,0.15,1.17c0.11,0.34,0.22,0.62,0.36,0.83
					l2.25-0.16l0.6,3.12c0.07,0.72-0.02,1.71-0.83,2.74c-0.45,0.57-1.05,1.03-1.79,1.37C49.42,46.31,48.59,46.47,47.67,46.47z
					 M49.89,39.05l-1.55,2.68l1.72-2.59C50.02,39.11,49.96,39.08,49.89,39.05z M42.27,36.99c0.01,0,0.07,0.12,0.23,0.33
					c0.21,0.27,0.46,0.53,0.74,0.79c-0.04-0.39-0.06-0.79-0.06-1.2c0-1.67,0.18-3.48,0.54-5.39c0.29-1.55,0.66-3.11,1.09-4.66
					c-0.39,1.02-0.75,2.04-1.1,3.06c-0.42,1.22-0.77,2.46-1.05,3.69C42.4,34.72,42.27,35.86,42.27,36.99
					C42.27,36.99,42.27,36.99,42.27,36.99z M26.49,32.69c0.42,0.57,0.8,0.97,1.22,1.36c0.03,0.03,0.06,0.06,0.09,0.09
					c-0.21-0.34-0.39-0.73-0.54-1.2l-0.2-0.63l0.08-0.66c0.3-2.44,0.84-4.82,1.62-7.06c0.73-2.1,1.5-4.06,2.29-5.8
					c0.76-1.69,1.43-3.13,2.02-4.32c0.19-0.4,0.32-0.69,0.41-0.9c-0.23-0.34-0.44-0.62-0.66-0.87c-0.27,0.69-0.57,1.47-0.92,2.34
					c-0.45,1.15-0.92,2.38-1.41,3.71c-0.49,1.33-0.99,2.7-1.49,4.12c-0.49,1.38-0.93,2.72-1.31,4.02c-0.37,1.26-0.68,2.46-0.91,3.6
					C26.62,31.33,26.52,32.07,26.49,32.69z M43.84,20.67l2.56,1.17c0.13-0.35,0.25-0.7,0.38-1.05c0.62-1.67,1.21-3.19,1.77-4.56
					c0.56-1.37,1.06-2.54,1.5-3.5l0.23-0.51c-0.22-0.15-0.46-0.3-0.72-0.45c-0.28-0.16-0.56-0.31-0.83-0.45
					C47.02,14.75,45.38,17.87,43.84,20.67z M13.79,14.66c0,0.01-0.01,0.03-0.01,0.04c0.23-0.21,0.49-0.43,0.75-0.65
					c0.01,0,0.01-0.01,0.01-0.01c-0.14,0.1-0.27,0.2-0.39,0.3C13.97,14.48,13.86,14.59,13.79,14.66z M50.93,10.83
					c-0.02,0.04-0.04,0.08-0.05,0.12L50.93,10.83z"/>
			</g>
			<g>
				<path class="st1" d="M61.78,39.98c-1.73,0-3.17-0.24-4.37-0.74c-0.95,0.59-2.16,0.72-3.36,0.32c-0.6-0.2-1.22-0.49-1.86-0.86
					c-0.56-0.32-1.15-0.72-1.76-1.17c-0.55-0.41-1.05-0.81-1.51-1.2c-0.53-0.45-0.96-0.86-1.3-1.23c-0.36-0.39-1.2-1.31-1.2-2.67
					c0-0.8,0.15-1.76,0.47-3c0.26-1.01,0.6-2.16,1.03-3.45c0.41-1.25,0.87-2.6,1.39-4.04c0.52-1.43,1.04-2.87,1.59-4.3l1.57-4.15
					c0.5-1.33,0.96-2.54,1.35-3.61c0.39-1.05,0.7-1.93,0.94-2.65c0.09-0.29,0.17-0.52,0.21-0.69V3.64h3.11
					c0.55,0,1.09,0.12,2.15,0.48c0.75,0.26,1.52,0.58,2.32,0.99c0.84,0.43,1.62,0.91,2.3,1.44c1.66,1.28,2,2.68,2,3.63
					c0,0.85-0.18,1.84-0.55,3.02c-0.17,0.55-0.37,1.15-0.6,1.79c0.3,0.1,0.62,0.23,0.96,0.38c0.97,0.43,1.94,1,2.9,1.71l0.01,0
					c0.99,0.73,1.88,1.59,2.64,2.55c1.03,1.31,1.55,2.75,1.55,4.28c0,0.88-0.18,1.88-0.56,3.05c-0.31,0.98-0.74,2.04-1.26,3.12
					c-0.51,1.06-1.09,2.12-1.75,3.18c-0.67,1.07-1.38,2.07-2.14,2.97c-0.83,0.98-1.69,1.8-2.57,2.43
					C64.29,39.54,63.04,39.98,61.78,39.98z M52.8,31.47c0.05,0.04,0.09,0.08,0.14,0.12c0.36,0.3,0.75,0.62,1.18,0.94l1.34-3.09
					c0.42-0.96,0.85-1.94,1.31-2.95c0.46-1.04,0.95-2.04,1.44-3.02c0.12-0.25,0.25-0.49,0.37-0.72l-2.23-1.05
					c0.53-1.41,1.08-2.77,1.64-4.09c0.53-1.24,0.99-2.4,1.4-3.48c0.39-1.03,0.72-1.96,0.97-2.78c0.03-0.1,0.06-0.2,0.09-0.29
					c-0.12-0.08-0.25-0.15-0.38-0.22c-0.13,0.37-0.27,0.77-0.43,1.18c-0.4,1.09-0.86,2.32-1.38,3.67l-1.56,4.13
					c-0.53,1.4-1.04,2.81-1.55,4.21c-0.5,1.39-0.94,2.68-1.33,3.87c-0.37,1.15-0.68,2.18-0.92,3.08
					C52.87,31.17,52.83,31.33,52.8,31.47z M67.45,24.49c-0.19,0.52-0.41,1.08-0.67,1.68c-0.4,0.96-0.86,1.97-1.38,3.01
					c0.34-0.59,0.66-1.18,0.94-1.78c0.39-0.81,0.7-1.58,0.94-2.32C67.36,24.85,67.41,24.65,67.45,24.49z"/>
			</g>
			<g>
				<path class="st1" d="M100.7,41.88l-1.07-0.13c-0.5-0.11-1-0.32-1.54-0.63c-0.28-0.12-0.88-0.45-1.56-0.89
					c-0.63-0.4-1.24-0.83-1.83-1.29c-0.67-0.53-1.26-1.08-1.75-1.65c-0.84-0.98-1.26-2.04-1.26-3.15c0-1.04,0.2-2.21,0.61-3.58
					c-0.09,0.1-0.17,0.2-0.26,0.31c-0.8,0.95-1.67,1.92-2.62,2.9c-0.97,0.99-1.93,1.9-2.91,2.72c-1.04,0.89-2.09,1.63-3.11,2.2
					c-2.52,1.43-4.78,1.34-7.46,0.61c-1.33-0.36-2.58-0.93-3.74-1.7c-1.24-0.82-2.29-1.88-3.1-3.15c-0.91-1.41-1.37-3.07-1.37-4.95
					c0-2.18,0.39-4.27,1.18-6.22c0.73-1.82,1.63-3.45,2.67-4.85c1.06-1.42,2.21-2.59,3.43-3.49c1.5-1.09,2.88-1.65,4.22-1.7
					c0.58-0.04,1.36,0.14,2.26,0.48c0.59,0.22,1.22,0.5,1.9,0.84c0.69,0.35,1.35,0.73,1.98,1.15c0.38,0.26,0.72,0.51,1.03,0.77
					c0.07,0.03,0.15,0.05,0.22,0.09c0.16,0.07,0.32,0.14,0.47,0.22c0.12-0.89,0.43-1.81,0.91-2.79c0.49-0.99,1.02-1.94,1.6-2.85
					c0.55-0.86,1.05-1.62,1.51-2.27c0.03-0.05,0.06-0.09,0.09-0.13V6.41h3.11c0.74,0,1.37,0.23,2.42,0.72
					c0.73,0.34,1.47,0.75,2.23,1.23c0.81,0.52,1.53,1.07,2.13,1.64c1.59,1.5,1.61,3.02,1.4,3.96l0.29,0.1
					c0.21,0.08,0.59,0.27,1.14,0.61c0.42,0.26,0.87,0.58,1.37,0.97c0.02,0.02,0.04,0.03,0.06,0.05l0.32-0.1l-0.12,0.26
					c0.37,0.3,0.75,0.62,1.14,0.97c0.53,0.47,0.99,0.92,1.38,1.36c0.49,0.55,0.87,1.07,1.17,1.61c0.19,0.35,0.33,0.68,0.42,1
					c0.08-0.1,0.16-0.2,0.25-0.29l3.05-3.64l2.3,4.55c0.28,0.45,0.5,0.96,0.64,1.51c0.15,0.64,0.19,1.28,0.12,1.99l0,0
					c-0.06,0.57-0.21,1.21-0.45,1.97l-0.19,0.57l-0.39,0.46c-2.03,2.44-3.89,4.61-5.58,6.52l-2.16,2.38c-0.72,0.8-1.39,1.51-2,2.14
					c-0.64,0.65-1.18,1.18-1.63,1.59C102.89,41.19,101.96,41.88,100.7,41.88z M97.97,33.56c0.01,0.01,0.02,0.01,0.02,0.02
					c0.25-0.94,0.68-2.11,1.32-3.63c0.61-1.45,1.23-2.82,1.87-4.11c0.63-1.29,1.23-2.42,1.78-3.38c0.09-0.15,0.16-0.29,0.24-0.42
					c-0.12-0.13-0.26-0.26-0.41-0.39L101,25.44c-0.56,1.2-1.08,2.39-1.55,3.58c-0.46,1.15-0.85,2.23-1.16,3.25
					C98.11,32.83,98.02,33.25,97.97,33.56z M103.82,20.85c-0.02,0.04-0.04,0.07-0.05,0.11C103.79,20.92,103.81,20.88,103.82,20.85z
					 M93.38,17.23c0.14,0.13,0.28,0.25,0.42,0.37l0.25-0.56c0.5-1.13,1.02-2.17,1.57-3.12c0.04-0.07,0.09-0.15,0.13-0.22
					c-0.04-0.03-0.08-0.05-0.12-0.07c-0.05-0.03-0.09-0.06-0.14-0.09c-0.2,0.31-0.42,0.64-0.64,0.98c-0.46,0.73-0.89,1.48-1.27,2.26
					C93.49,16.94,93.43,17.1,93.38,17.23z"/>
			</g>
			<g>
				<path class="st1" d="M141.53,47.32l-2.2-2.2c-0.38-0.38-0.78-0.72-1.2-1.03c-0.33-0.25-0.7-0.46-1.11-0.66
					c-0.24-0.11-0.39-0.13-0.49-0.13c-0.33,0-0.87,0.07-1.61,0.17c-0.94,0.14-2.03,0.3-3.28,0.5l-4.09,0.65
					c-1.5,0.24-2.97,0.46-4.44,0.66c-1.48,0.2-2.89,0.38-4.25,0.52c-3.04,0.32-5.03,0.49-7.03-0.79c-0.81-0.52-1.55-1.17-2.2-1.93
					c-0.58-0.67-1.11-1.43-1.56-2.23c-0.43-0.77-0.76-1.52-1-2.22c-0.22-0.6-0.26-1.21-0.26-1.78c0-0.49,0.03-1.02,0.09-1.59
					c0.07-0.63,0.18-1.21,0.33-1.77c0.26-0.94,0.69-1.72,1.28-2.3l1.1-1.09l1.65,0.18c0.54,0.08,1.5,0.36,2.22,1.37
					c0.03-0.02,0.06-0.05,0.1-0.08c1.05-0.81,2.23-1.79,3.54-2.94c1.34-1.16,2.74-2.46,4.22-3.89c1.47-1.43,2.89-2.87,4.24-4.34
					c0.14-0.15,0.28-0.3,0.41-0.44c-0.45,0.14-0.89,0.26-1.32,0.38c-2.98,0.83-4.68,0.79-6.64-0.47c-0.77-0.49-1.5-1.11-2.19-1.83
					c-0.66-0.69-1.27-1.48-1.81-2.33c-0.51-0.79-0.94-1.61-1.29-2.4c-0.42-0.97-0.66-1.9-0.72-2.78c-0.12-1.84,0.62-2.99,1.27-3.63
					l1.8-1.79l2.12,1.41c0.22,0.15,0.47,0.28,0.75,0.4c0.24,0.1,0.56,0.19,0.93,0.27c0.58,0.13,1.14,0.18,2.65-0.04
					c0.84-0.12,1.76-0.28,2.8-0.47l6.93-1.24c1.18-0.21,2.27-0.38,3.27-0.51c1.13-0.14,2.04-0.21,2.74-0.21
					c1.12,0,2.22,0.29,3.27,0.86c0.84,0.46,1.65,1.06,2.39,1.78c0.68,0.67,1.31,1.41,1.85,2.21c0.59,0.86,1.04,1.74,1.36,2.62
					c0.35,1,0.51,1.96,0.5,2.88c-0.04,1.72-0.8,2.82-1.42,3.45l-2.34,2.32l-1.17-1.33c-0.11,0.16-0.23,0.32-0.35,0.49
					c-0.77,1.05-1.69,2.19-2.76,3.41c-1.04,1.19-2.17,2.43-3.4,3.72c-1.2,1.26-2.42,2.52-3.67,3.79c0.6-0.12,1.17-0.22,1.71-0.32
					c1.19-0.21,2.14-0.31,2.89-0.31c1.2,0,2.35,0.35,3.44,1.05c0.84,0.54,1.63,1.23,2.33,2.06c0.65,0.76,1.24,1.61,1.73,2.53
					c0.5,0.93,0.89,1.87,1.15,2.8c0.29,1.03,0.41,2.02,0.38,2.93c-0.08,1.75-0.82,2.84-1.42,3.45L141.53,47.32z M114.01,38.62
					c0.11,0.14,0.22,0.28,0.33,0.42c0.27,0.31,0.53,0.55,0.83,0.74c0.84,0.03,1.85-0.03,3.04-0.15c1.28-0.13,2.63-0.3,4.04-0.49
					c1.42-0.2,2.85-0.41,4.3-0.64l4.12-0.65c1.28-0.2,2.4-0.37,3.36-0.51c1.39-0.2,2.22-0.25,2.82-0.23
					c-0.21-0.2-0.42-0.38-0.63-0.51c-0.56-0.07-1.15,0.01-1.91,0.15c-0.96,0.17-2.04,0.38-3.23,0.63c-1.25,0.26-2.57,0.53-3.96,0.81
					c-4.26,0.84-4.92,0.73-5.19,0.69l-3.83-0.62l1.36-3.41c-0.73,0.62-1.43,1.17-2.07,1.67c-1.34,1.03-2.34,1.68-3.17,2.03
					L114.01,38.62z M120.13,13.52c0.07,0.08,0.14,0.15,0.21,0.23c0.36,0.37,0.71,0.67,1.06,0.9c0.02,0.05,0.51,0.02,1.6-0.29
					c1.03-0.29,2.13-0.63,3.31-1.02l3.72-1.23c0.29-0.09,0.56-0.18,0.82-0.27l-5.38,0.96c-1.13,0.21-2.14,0.38-3.03,0.5
					C121.44,13.45,120.67,13.51,120.13,13.52z M135.33,11.11c0.44,0.13,0.84,0.38,1.24,0.77c0.39,0.41,0.66,0.82,0.81,1.24
					l-0.06-1.13l1.1-0.33c-0.28-0.25-0.56-0.45-0.84-0.61c-0.12-0.07-0.24-0.11-0.31-0.11C136.77,10.95,136.13,11.01,135.33,11.11
					C135.33,11.11,135.33,11.11,135.33,11.11z"/>
			</g>
			<g>
				<path class="st1" d="M198.55,40.69c-0.63,0-1.27-0.14-1.92-0.42c-0.41-0.18-0.8-0.4-1.17-0.65c-0.44-0.24-0.92-0.53-1.44-0.88
					c-0.39-0.26-0.78-0.53-1.14-0.81c-0.6,0.6-1.44,1.16-2.58,1.16c-0.73,0-1.43-0.18-2.09-0.53c-0.53-0.22-1.18-0.52-1.95-0.91
					c-0.86-0.43-1.7-0.9-2.52-1.42c-0.49-0.3-0.94-0.63-1.38-0.96l-0.77,0.94c-0.51,0.62-0.93,1.11-1.27,1.48
					c-0.48,0.53-1.39,1.5-2.86,1.5l-0.43-0.02c-0.3-0.03-0.91-0.16-1.83-0.4c-0.83-0.22-1.69-0.52-2.56-0.89
					c-0.74-0.32-1.44-0.68-2.07-1.07c-0.14,0.18-0.27,0.33-0.39,0.47c-0.4,0.46-1.33,1.51-2.88,1.51c-0.46,0-0.9-0.09-1.5-0.25
					c-0.45-0.12-0.95-0.28-1.53-0.48c-0.59-0.2-1.2-0.45-1.84-0.74c-0.66-0.3-1.28-0.63-1.86-0.98c-0.04-0.02-0.08-0.05-0.12-0.07
					c-0.4,0.49-0.78,0.94-1.14,1.35c-0.59,0.68-1.11,1.22-1.54,1.64c-0.52,0.5-1.48,1.44-2.93,1.44c-0.62,0-1.27-0.14-1.92-0.42
					c-0.41-0.18-0.8-0.39-1.17-0.65c-0.44-0.24-0.93-0.54-1.45-0.88c-0.39-0.26-0.78-0.53-1.14-0.81c-0.6,0.6-1.44,1.16-2.57,1.16
					c-0.73,0-1.43-0.18-2.09-0.53c-0.53-0.22-1.18-0.52-1.95-0.9c-0.86-0.43-1.71-0.91-2.52-1.42c-0.9-0.56-1.71-1.18-2.39-1.84
					c-1.17-1.12-1.76-2.34-1.76-3.65c0-0.97,0.13-1.99,0.4-3.12c0.25-1.04,0.59-2.09,1-3.11c0.39-0.98,0.83-1.93,1.3-2.87
					c0.5-0.97,1.02-1.87,1.56-2.65c0.59-0.84,1.15-1.51,1.71-2.05c1.63-1.59,3.23-1.75,5.75-1.08c0.83,0.22,1.67,0.5,2.55,0.85
					c0.43,0.17,0.85,0.36,1.26,0.56v-2.09h3.11c0.74,0,1.37,0.23,2.42,0.72c0.71,0.34,1.45,0.73,2.2,1.2
					c0.85,0.52,1.59,1.09,2.2,1.69c0.08,0.08,0.16,0.16,0.23,0.24c0.26-0.39,0.52-0.76,0.78-1.1c0.66-0.85,1.28-1.51,1.93-2.03
					c1.62-1.31,2.95-1.39,5.22-1.05c0.78,0.12,1.55,0.29,2.33,0.52c0.27,0.08,0.53,0.17,0.79,0.26c0.22-0.49,0.45-1,0.69-1.54
					c0.46-1.06,0.93-2.16,1.39-3.28c0.43-1.05,0.79-2.01,1.06-2.88l0.35-1.1l0.98-0.61c1.63-1.01,3.4-0.31,4.07-0.04
					c0.86,0.34,1.72,0.79,2.58,1.35c0.88,0.58,1.65,1.2,2.28,1.85c2.01,2.06,1.43,3.99,1.09,4.72l-0.58,1.32
					c-0.14,0.33-0.3,0.69-0.46,1.09c1.51-1.2,2.97-1.23,5.23-0.64c0.83,0.22,1.68,0.5,2.55,0.85c0.43,0.17,0.84,0.36,1.25,0.56
					v-2.09h3.11c0.75,0,1.38,0.23,2.42,0.72c0.71,0.34,1.44,0.73,2.19,1.2c0.54,0.33,1.04,0.68,1.49,1.05
					c0.24-1.26,0.6-2.42,1.1-3.45c0.79-1.66,1.78-3.05,2.95-4.13c1.17-1.09,2.49-1.92,3.93-2.45c2.6-0.96,5.06-1.13,7.7,0.06
					c1.22,0.54,2.35,1.38,3.33,2.47c0.97,1.07,1.74,2.41,2.3,3.96v0c0.56,1.56,0.8,3.39,0.7,5.43c-0.14,2.58-0.66,5.08-1.53,7.45
					c-0.87,2.33-1.96,4.43-3.27,6.24c-1.34,1.87-2.85,3.4-4.5,4.54c-3.47,2.42-7.32,2.33-9.82,1.23c-1.18-0.52-2.14-1.22-2.85-2.08
					c-0.2-0.24-0.37-0.49-0.53-0.74c-0.28,0.33-0.55,0.65-0.8,0.94c-0.59,0.67-1.1,1.21-1.53,1.64
					C200.95,39.76,199.98,40.69,198.55,40.69z M152.13,32.28L152.13,32.28c0.18-0.78,0.5-1.83,1.03-3.28
					c0.47-1.28,0.96-2.49,1.45-3.61c0.5-1.12,0.96-2.09,1.39-2.92l0,0l-0.46,0.76c-0.05,0.09-0.11,0.18-0.16,0.27l-2.07,3.39
					c-0.39,0.63-0.77,1.24-1.17,1.85V32.28z M174.22,31.74c0.14,0.08,0.28,0.15,0.43,0.22c-0.03-0.69,0.18-1.9,1.01-4.75
					c0.4-1.37,0.83-2.74,1.29-4.12c0.46-1.37,0.94-2.7,1.42-3.99c0.48-1.28,0.93-2.44,1.34-3.48c0.4-1.02,0.76-1.88,1.08-2.6
					c-0.07-0.05-0.14-0.1-0.21-0.15c-0.04,0.1-0.08,0.19-0.12,0.29c-0.48,1.17-0.97,2.3-1.44,3.4c-0.49,1.12-0.94,2.13-1.37,3.02
					c-0.33,0.7-0.6,1.26-0.8,1.67l0.11,0.17l-0.66,1.55c-0.08,0.18-0.14,0.36-0.19,0.54l-0.55,1.64c-0.6,1.01-1.22,2.01-1.87,3.01
					c-0.34,0.53-0.68,1.05-1.01,1.55l1.76,0.68C174.33,30.94,174.26,31.39,174.22,31.74z M195.2,29.73l0.87,0.07l-0.16,2.07
					c0.22-0.83,0.56-1.78,0.95-2.85c0.48-1.29,0.96-2.5,1.46-3.62c0.47-1.07,0.92-2.01,1.33-2.81L197,26.89
					c-0.55,0.9-1.11,1.77-1.67,2.63C195.28,29.59,195.24,29.66,195.2,29.73z M210.05,29.85c0.05,0.12,0.11,0.25,0.18,0.38
					c0.1-0.08,0.21-0.16,0.31-0.25C210.38,29.94,210.21,29.9,210.05,29.85z M142.14,30.08c0.02,0.01,0.03,0.03,0.05,0.04
					c0.24-0.79,0.53-1.61,0.87-2.47c0.35-0.88,0.74-1.74,1.17-2.59c0.44-0.87,0.91-1.66,1.38-2.37c0.18-0.27,0.37-0.53,0.56-0.77
					c-0.05-0.02-0.1-0.03-0.15-0.04c-0.08-0.02-0.15-0.04-0.21-0.05c-0.19,0.22-0.37,0.46-0.56,0.73c-0.38,0.54-0.75,1.18-1.11,1.9
					c-0.39,0.78-0.76,1.58-1.08,2.39c-0.3,0.75-0.54,1.49-0.72,2.23C142.24,29.43,142.18,29.77,142.14,30.08z M185.57,27.39
					l0.77,0.29l-0.38,2.23c0.22-0.72,0.49-1.47,0.8-2.27c0.34-0.86,0.73-1.72,1.16-2.57c0.45-0.88,0.91-1.67,1.39-2.38
					c0.18-0.27,0.37-0.53,0.56-0.77c-0.05-0.02-0.1-0.03-0.15-0.04c-0.08-0.02-0.15-0.04-0.21-0.05c-0.18,0.22-0.36,0.46-0.55,0.73
					c-0.32,0.45-0.61,0.99-0.91,1.55l-0.51,0.73L185.57,27.39z M163.08,29.1c0.17,0.22,0.3,0.45,0.4,0.69
					c0.13-0.53,0.29-1.05,0.46-1.55c0.05-0.13,0.09-0.26,0.13-0.39l-0.83,1.06C163.19,28.96,163.13,29.03,163.08,29.1z
					 M181.44,11.52c-0.02,0.04-0.03,0.07-0.05,0.11L181.44,11.52z"/>
			</g>
			<g>
				<path class="st1" d="M227.47,40.24c-1.62,0-2.97-0.25-4.11-0.75c-1.18-0.52-2.14-1.22-2.85-2.08c-0.73-0.9-1.21-1.89-1.41-2.95
					c-0.17-0.84-0.22-1.68-0.14-2.47c0.08-0.82,0.27-1.56,0.56-2.2c0.85-1.84,2.24-2.22,3.01-2.29c-0.74-0.81-1.35-1.8-1.78-2.93
					c-0.45-1.19-0.64-2.52-0.58-3.97c0.12-2.26,0.59-4.24,1.38-5.91c0.78-1.65,1.78-3.05,2.95-4.13c1.18-1.1,2.5-1.92,3.93-2.45
					c2.59-0.96,5.04-1.13,7.7,0.06c1.23,0.55,2.35,1.38,3.33,2.47c0.96,1.06,1.74,2.4,2.3,3.96c0.56,1.56,0.8,3.38,0.7,5.43
					c-0.14,2.6-0.66,5.09-1.53,7.45c-0.87,2.33-1.96,4.43-3.26,6.24c-1.34,1.87-2.85,3.4-4.49,4.54
					C231.3,39.58,229.38,40.24,227.47,40.24z M226.21,29.85c0.05,0.12,0.11,0.25,0.18,0.38c0.1-0.08,0.21-0.16,0.31-0.25
					C226.54,29.94,226.37,29.9,226.21,29.85z"/>
			</g>
		</g>
		<g>
			<g>
				<path class="st0" d="M48.34,41.72c-0.37-0.25-0.71-0.6-1.01-1.06c-0.3-0.46-0.55-1.01-0.75-1.64c-0.2-0.63-0.3-1.34-0.3-2.11
					c0-1.49,0.16-3.1,0.49-4.81c0.32-1.72,0.74-3.44,1.25-5.17c0.51-1.73,1.07-3.42,1.68-5.06c0.61-1.64,1.19-3.13,1.74-4.46
					c0.55-1.33,1.03-2.46,1.45-3.4c0.42-0.93,0.71-1.56,0.86-1.88c0.15-0.3,0.1-0.63-0.13-0.99c-0.24-0.36-0.57-0.72-1.01-1.06
					c-0.44-0.35-0.94-0.68-1.51-1.01c-0.57-0.32-1.12-0.61-1.64-0.86c-0.52-0.25-0.99-0.45-1.4-0.6c-0.41-0.15-0.67-0.22-0.77-0.22
					v0.04L47.22,7.5V7.39c-2.84,5.75-5.42,10.66-7.76,14.74c-0.99,1.74-1.99,3.39-2.99,4.94c-1,1.56-1.92,2.83-2.76,3.83
					c-0.85,0.99-1.57,1.63-2.18,1.9c-0.61,0.27-1.04,0.01-1.29-0.78c0.27-2.24,0.77-4.38,1.47-6.42c0.71-2.04,1.44-3.89,2.18-5.54
					c0.75-1.65,1.41-3.07,1.98-4.24c0.57-1.17,0.86-1.98,0.86-2.43c0-0.4-0.19-0.89-0.58-1.47s-0.85-1.16-1.38-1.74
					c-0.54-0.57-1.08-1.09-1.64-1.55c-0.56-0.46-1.01-0.79-1.36-0.99c-0.5-0.47-1.08-0.9-1.75-1.29c-0.67-0.39-1.33-0.58-1.98-0.58
					c-0.7,0-1.58,0.12-2.65,0.37c-1.07,0.25-2.21,0.57-3.42,0.97c-1.21,0.4-2.44,0.86-3.69,1.4c-1.26,0.54-2.4,1.09-3.43,1.66
					c-1.03,0.57-1.91,1.14-2.63,1.72c-0.72,0.57-1.17,1.11-1.34,1.61c-0.22,0.77-0.31,1.61-0.24,2.5s0.21,1.73,0.43,2.5
					c0.22,0.77,0.48,1.41,0.78,1.92c0.3,0.51,0.55,0.77,0.75,0.77c0.2,0,0.44-0.02,0.71-0.07c0.27-0.05,0.54-0.11,0.78-0.19
					c0.25-0.07,0.44-0.17,0.58-0.28c0.14-0.11,0.17-0.23,0.09-0.35c-0.05-0.07-0.12-0.11-0.21-0.09c-0.09,0.01-0.17,0.01-0.24-0.02
					c-0.07-0.02-0.14-0.1-0.21-0.22c-0.06-0.12-0.09-0.36-0.09-0.71c0-0.22,0.23-0.59,0.69-1.1s1.07-1.08,1.83-1.72
					c0.76-0.63,1.64-1.29,2.63-1.96c0.99-0.67,2.03-1.29,3.1-1.85c1.07-0.56,2.15-1.02,3.23-1.38c1.08-0.36,2.1-0.54,3.04-0.54
					c0.72,0,1.28,0.05,1.68,0.15c-0.32,0.85-0.72,1.85-1.18,3.02c-0.46,1.17-0.94,2.43-1.44,3.77c-0.5,1.34-1,2.73-1.51,4.16
					c-0.51,1.43-0.97,2.82-1.36,4.18c-0.4,1.36-0.72,2.64-0.97,3.86c-0.25,1.22-0.37,2.28-0.37,3.17c0,0.47,0.22,1.01,0.67,1.61
					c0.45,0.6,0.97,1.17,1.57,1.72c0.6,0.55,1.2,1.03,1.81,1.44c0.61,0.41,1.09,0.65,1.44,0.73c0.3,0.32,0.66,0.49,1.08,0.49
					c0.97,0,1.88-0.27,2.72-0.82c0.85-0.55,1.66-1.29,2.43-2.22c0.77-0.93,1.5-2.01,2.2-3.23c0.7-1.22,1.39-2.49,2.09-3.83
					c0.7-1.33,1.39-2.68,2.07-4.05c0.68-1.37,1.4-2.66,2.15-3.88c-0.42,1.34-0.89,2.68-1.4,3.99c-0.51,1.32-0.99,2.64-1.44,3.96
					c-0.45,1.32-0.83,2.65-1.14,3.99c-0.31,1.34-0.47,2.71-0.47,4.1c0,0.72,0.3,1.46,0.9,2.22c0.6,0.76,1.33,1.44,2.2,2.05
					c0.87,0.61,1.8,1.11,2.78,1.49c0.98,0.39,1.86,0.58,2.63,0.58c0.47,0,0.86-0.07,1.16-0.21c0.3-0.14,0.51-0.29,0.65-0.47
					c0.14-0.17,0.2-0.32,0.19-0.45c-0.01-0.13-0.09-0.19-0.24-0.19C49.07,42.08,48.71,41.97,48.34,41.72z"/>
			</g>
			<g>
				<path class="st0" d="M67.73,19.59c-0.78-0.57-1.55-1.03-2.31-1.36c-0.76-0.34-1.32-0.5-1.67-0.5c-0.27,0-0.58,0.14-0.93,0.41
					c-0.35,0.27-0.72,0.64-1.11,1.1c-0.39,0.46-0.8,0.99-1.22,1.6c-0.42,0.61-0.83,1.26-1.22,1.96c0.52-1.37,1.05-2.69,1.59-3.98
					c0.54-1.28,1.03-2.48,1.45-3.58c0.42-1.11,0.77-2.1,1.04-2.97c0.27-0.87,0.41-1.57,0.41-2.09c0-0.37-0.27-0.77-0.8-1.18
					c-0.53-0.41-1.13-0.78-1.8-1.12c-0.67-0.34-1.31-0.61-1.93-0.82c-0.62-0.21-1-0.32-1.15-0.32c0,0.22-0.12,0.71-0.37,1.45
					c-0.25,0.75-0.57,1.66-0.97,2.74c-0.4,1.08-0.85,2.29-1.36,3.64s-1.03,2.72-1.57,4.14c-0.54,1.42-1.06,2.84-1.57,4.25
					c-0.51,1.42-0.96,2.74-1.36,3.96c-0.4,1.22-0.72,2.31-0.97,3.27c-0.25,0.96-0.37,1.7-0.37,2.22c0,0.1,0.13,0.29,0.39,0.58
					c0.26,0.29,0.6,0.6,1.01,0.95c0.41,0.35,0.87,0.71,1.36,1.08c0.5,0.37,0.98,0.7,1.46,0.97c0.47,0.27,0.9,0.47,1.27,0.6
					c0.37,0.12,0.65,0.1,0.82-0.08c0.05-0.12,0.11-0.27,0.19-0.45c0.05-0.13,0.11-0.29,0.19-0.49c0.07-0.2,0.17-0.42,0.3-0.67
					c0.37,0.47,0.98,0.91,1.83,1.32c0.85,0.41,1.99,0.62,3.43,0.62c0.6,0,1.23-0.24,1.9-0.73c0.67-0.48,1.34-1.12,2-1.9
					c0.66-0.78,1.29-1.65,1.88-2.61c0.6-0.96,1.13-1.92,1.59-2.87c0.46-0.96,0.83-1.86,1.1-2.72c0.27-0.86,0.41-1.56,0.41-2.11
					c0-0.82-0.29-1.61-0.88-2.35C69.19,20.82,68.51,20.17,67.73,19.59z M64.85,22.5c-0.24,0.72-0.55,1.54-0.93,2.46
					c-0.39,0.92-0.83,1.88-1.33,2.87c-0.5,1-1.02,1.91-1.57,2.74s-1.09,1.52-1.62,2.05c-0.53,0.54-1.03,0.8-1.47,0.8
					c-0.3,0-0.53-0.07-0.71-0.22c0.32-0.75,0.69-1.59,1.1-2.54c0.41-0.94,0.84-1.91,1.29-2.91c0.45-0.99,0.91-1.96,1.38-2.89
					c0.47-0.93,0.92-1.77,1.34-2.52c0.42-0.75,0.82-1.34,1.2-1.79s0.7-0.67,0.97-0.67c0.22,0,0.4,0.07,0.52,0.22
					c0.12,0.15,0.19,0.44,0.19,0.86C65.21,21.27,65.09,21.78,64.85,22.5z"/>
			</g>
			<g>
				<path class="st0" d="M112.92,24.56c0.04-0.35,0.02-0.65-0.04-0.9c-0.06-0.25-0.15-0.46-0.26-0.63
					c-0.11-0.17-0.22-0.36-0.32-0.56c-1.52,1.82-2.99,3.55-4.4,5.19c-0.6,0.7-1.22,1.41-1.87,2.13c-0.65,0.72-1.28,1.42-1.9,2.09
					c-0.62,0.67-1.21,1.3-1.77,1.87c-0.56,0.57-1.48,1.49-1.51,1.46c-0.08-0.07,0.74-2.64,1.32-4.03c0.58-1.39,1.18-2.71,1.79-3.94
					c0.61-1.23,1.18-2.31,1.7-3.23s0.86-1.55,1.01-1.9c0.1-0.2,0.06-0.47-0.13-0.8c-0.19-0.34-0.44-0.68-0.77-1.04
					c-0.32-0.36-0.7-0.73-1.14-1.12c-0.43-0.39-0.85-0.73-1.25-1.04s-0.76-0.57-1.08-0.77c-0.32-0.2-0.55-0.32-0.67-0.37h-0.04
					h-0.04c-0.1,0-0.31,0.03-0.63,0.09c-0.32,0.06-0.71,0.15-1.16,0.28c-0.45,0.12-0.93,0.27-1.44,0.43
					c-0.51,0.16-0.99,0.34-1.44,0.54c0.45-1.02,0.92-1.96,1.42-2.82c0.5-0.86,0.87-1.55,1.12-2.07c0.15-0.32-0.01-0.7-0.47-1.14
					c-0.46-0.44-1.01-0.86-1.66-1.27c-0.65-0.41-1.28-0.76-1.88-1.04c-0.61-0.29-0.98-0.43-1.1-0.43c0,0.15-0.22,0.54-0.65,1.16
					c-0.44,0.62-0.91,1.34-1.44,2.17c-0.52,0.82-1,1.67-1.44,2.56c-0.44,0.88-0.65,1.67-0.65,2.37c0,0.42,0.27,0.9,0.8,1.44
					c0.53,0.53,1.15,1.04,1.85,1.51l-1.56,2.24c0,0,0,0,0,0c-0.37,0.57-0.85,1.24-1.44,2s-1.22,1.54-1.9,2.35
					c-0.68,0.81-1.4,1.61-2.15,2.39c-0.75,0.78-1.49,1.49-2.22,2.11c-0.73,0.62-1.42,1.13-2.07,1.51c-0.65,0.39-1.22,0.59-1.72,0.62
					c-0.45,0.03-0.88-0.04-1.29-0.19c-0.41-0.15-0.78-0.37-1.1-0.67c-0.32-0.3-0.57-0.66-0.75-1.08c-0.17-0.42-0.25-0.9-0.22-1.42
					c0.02-0.35,0.06-0.65,0.09-0.89c0.04-0.25,0.08-0.48,0.13-0.69c0.05-0.21,0.12-0.43,0.19-0.65c0.09-0.32,0.2-0.76,0.22-0.75
					c0.04,0.01,0.06,0.65,1.18,1.36c0.58,0.37,1.44,0.54,2.56,0.54c1.02,0,1.91-0.21,2.69-0.62c0.77-0.41,1.42-0.93,1.94-1.57
					c0.52-0.63,0.93-1.35,1.21-2.15c0.29-0.8,0.45-1.59,0.5-2.39c0-0.7-0.09-1.27-0.26-1.72c-0.17-0.45-0.38-0.8-0.62-1.04
					c-0.24-0.25-0.48-0.42-0.73-0.52c-0.25-0.1-0.46-0.15-0.63-0.15c-0.27-0.32-0.67-0.66-1.19-1.01c-0.52-0.35-1.07-0.67-1.64-0.95
					c-0.57-0.29-1.11-0.52-1.6-0.71c-0.5-0.19-0.85-0.28-1.05-0.28c-0.7,0.03-1.53,0.39-2.5,1.1c-0.97,0.71-1.9,1.66-2.78,2.84
					c-0.88,1.18-1.64,2.56-2.28,4.14c-0.63,1.58-0.95,3.27-0.95,5.06c0,1.27,0.29,2.36,0.88,3.27c0.58,0.91,1.32,1.65,2.2,2.24
					c0.88,0.58,1.83,1.01,2.84,1.29c1.01,0.27,1.93,0.41,2.78,0.41c0.7,0,1.47-0.24,2.33-0.73c0.86-0.48,1.74-1.11,2.63-1.87
					c0.9-0.76,1.79-1.6,2.69-2.52c0.9-0.92,1.72-1.83,2.46-2.72c0.75-0.89,1.4-1.72,1.96-2.46c0.51-0.69,0.88-1.21,1.13-1.6
					l2.17-2.84c0.55,0.25,0.88,0.37,1.01,0.37c0.1-0.08,0.28-0.18,0.54-0.32c0.26-0.14,0.57-0.29,0.93-0.45
					c0.36-0.16,0.75-0.32,1.18-0.49c0.42-0.16,0.83-0.3,1.23-0.43c-0.5,1.04-1.04,2.2-1.62,3.45s-1.13,2.5-1.62,3.73
					c-0.5,1.23-0.91,2.4-1.25,3.51c-0.34,1.11-0.5,2.03-0.5,2.78c0,0.35,0.17,0.73,0.52,1.14c0.35,0.41,0.78,0.82,1.29,1.21
					c0.51,0.4,1.04,0.77,1.59,1.12c0.55,0.35,1.03,0.62,1.46,0.82c0.3,0.17,0.55,0.27,0.75,0.3c0.05,0.03,0.11,0.04,0.19,0.04h0.11
					c0.15,0,0.43-0.19,0.84-0.56c0.41-0.37,0.91-0.86,1.49-1.45c0.58-0.6,1.22-1.28,1.92-2.05c0.7-0.77,1.41-1.55,2.13-2.35
					c1.67-1.89,3.51-4.04,5.52-6.46C112.78,25.35,112.88,24.9,112.92,24.56z M79.05,23.53c0.62-0.78,1.24-1.42,1.85-1.92
					c0.61-0.5,1.17-0.87,1.68-1.12c0.51-0.25,0.89-0.37,1.14-0.37c0.27,0,0.48,0.07,0.63,0.22c-0.15,0.6-0.39,1.27-0.71,2.02
					c-0.32,0.75-0.72,1.45-1.2,2.11c-0.47,0.66-1.01,1.21-1.62,1.64c-0.61,0.43-1.28,0.65-2,0.65c-0.35,0-0.63-0.04-0.86-0.11
					c-0.22-0.07-0.4-0.17-0.52-0.3C77.9,25.25,78.43,24.31,79.05,23.53z"/>
			</g>
			<g>
				<path class="st0" d="M140.89,37.41c-0.4-0.73-0.85-1.4-1.36-2s-1.06-1.08-1.64-1.45c-0.59-0.37-1.18-0.56-1.77-0.56
					c-0.57,0-1.36,0.09-2.35,0.26c-0.99,0.17-2.11,0.39-3.34,0.65c-1.23,0.26-2.54,0.53-3.92,0.8c-1.38,0.27-3.97,0.69-4.09,0.67
					c0.04-0.11,2.05-2.13,3.23-3.34c1.18-1.21,2.39-2.44,3.64-3.69c1.24-1.26,2.46-2.51,3.66-3.77c1.2-1.26,2.3-2.46,3.3-3.62
					c1.01-1.16,1.87-2.23,2.59-3.21s1.21-1.83,1.49-2.52c0.25-0.61,0.12-1.34,0.15-1.34c0.09-0.02,1.33,0.86,1.83,1.31
					c0.27,0.25,0.51,0.49,0.71,0.71c0.32-0.32,0.49-0.76,0.5-1.31c0.01-0.55-0.09-1.14-0.32-1.77c-0.22-0.63-0.55-1.27-0.99-1.9
					c-0.43-0.63-0.92-1.21-1.45-1.73c-0.54-0.52-1.1-0.95-1.7-1.27c-0.6-0.32-1.2-0.48-1.79-0.48c-0.6,0-1.37,0.06-2.33,0.19
					c-0.96,0.13-2,0.29-3.13,0.49c-1.13,0.2-2.3,0.4-3.49,0.62c-1.2,0.21-2.33,0.42-3.42,0.62c-1.08,0.2-2.05,0.36-2.91,0.48
					c-0.86,0.13-1.51,0.19-1.96,0.19c-0.67,0-1.28-0.06-1.83-0.19c-0.55-0.12-1.03-0.27-1.46-0.45c-0.47-0.2-0.89-0.42-1.27-0.67
					c-0.27,0.27-0.39,0.68-0.36,1.21c0.04,0.53,0.19,1.12,0.47,1.75c0.27,0.63,0.63,1.29,1.06,1.98c0.43,0.68,0.91,1.3,1.44,1.85
					c0.52,0.55,1.06,1,1.62,1.36c0.56,0.36,1.09,0.54,1.59,0.54c0.62,0,1.47-0.15,2.54-0.45c1.07-0.3,2.22-0.65,3.45-1.06
					c1.23-0.41,2.47-0.82,3.71-1.23c1.24-0.41,3.35-1,3.4-0.95c0.04,0.04-1.55,2.52-2.71,3.98c-1.16,1.45-2.43,2.94-3.83,4.44
					c-1.39,1.51-2.85,2.99-4.37,4.46c-1.52,1.47-2.96,2.8-4.33,3.99c-1.37,1.19-2.6,2.21-3.69,3.06s-1.93,1.39-2.5,1.64
					c-0.37,0-0.68-0.14-0.91-0.41c-0.24-0.27-0.44-0.57-0.61-0.9c-0.17-0.32-0.32-0.59-0.43-0.8c-0.11-0.21-0.22-0.27-0.32-0.17
					c-0.2,0.2-0.35,0.5-0.47,0.91c-0.11,0.41-0.19,0.84-0.24,1.29c-0.05,0.45-0.07,0.86-0.07,1.25s0.02,0.63,0.07,0.73
					c0.17,0.55,0.44,1.13,0.78,1.75c0.35,0.62,0.75,1.2,1.21,1.73c0.46,0.54,0.96,0.98,1.51,1.33c0.55,0.35,1.09,0.52,1.64,0.52
					c0.94,0,2.08-0.07,3.4-0.2c1.32-0.14,2.7-0.31,4.14-0.5c1.44-0.2,2.9-0.42,4.37-0.65c1.47-0.24,2.84-0.45,4.11-0.65
					c1.27-0.2,2.37-0.37,3.32-0.5c0.94-0.14,1.63-0.21,2.05-0.21c0.62,0,1.23,0.14,1.83,0.43c0.6,0.29,1.13,0.6,1.61,0.95
					c0.55,0.4,1.07,0.85,1.57,1.34c0.32-0.32,0.5-0.78,0.52-1.38c0.02-0.6-0.06-1.25-0.26-1.96
					C141.59,38.87,141.29,38.15,140.89,37.41z"/>
			</g>
			<g>
				<path class="st0" d="M222.69,15.66c-0.42-1.18-0.98-2.16-1.68-2.93c-0.7-0.77-1.46-1.34-2.29-1.72
					c-0.83-0.37-1.61-0.56-2.33-0.56c-0.97,0-1.98,0.19-3.02,0.58c-1.04,0.39-2.01,0.99-2.89,1.81c-0.88,0.82-1.64,1.88-2.26,3.19
					c-0.62,1.31-0.98,2.88-1.08,4.72c-0.05,0.92,0.07,1.73,0.31,2.46c-0.99,1.29-1.97,2.55-2.92,3.73c-0.47,0.6-0.96,1.21-1.47,1.83
					c-0.51,0.62-1.01,1.23-1.51,1.83c-0.5,0.6-0.99,1.16-1.47,1.7c-0.48,0.54-1.28,1.43-1.32,1.4c-0.07-0.05,0.6-2.4,1.04-3.62
					c0.45-1.22,0.91-2.36,1.38-3.43s0.91-2,1.33-2.78c0.41-0.78,0.69-1.35,0.84-1.7c0.15-0.32-0.01-0.71-0.47-1.16
					c-0.46-0.45-1.01-0.87-1.66-1.27c-0.65-0.4-1.28-0.74-1.88-1.03c-0.61-0.29-0.98-0.43-1.1-0.43c0,0.1-0.09,0.34-0.26,0.73
					c-0.17,0.39-0.42,0.88-0.75,1.47c-0.12,0.2-0.25,0.42-0.37,0.67c-0.12,0.25-0.27,0.51-0.45,0.78c-0.37-0.45-0.89-0.88-1.57-1.29
					c-0.67-0.41-1.38-0.76-2.13-1.06c-0.75-0.3-1.47-0.54-2.18-0.73s-1.29-0.28-1.74-0.28c-0.3,0-0.65,0.2-1.06,0.6
					c-0.41,0.4-0.85,0.93-1.31,1.59c-0.38,0.54-0.74,1.19-1.1,1.86c-0.93,1.21-1.85,2.4-2.69,3.5c-0.45,0.57-0.9,1.14-1.36,1.7
					s-0.9,1.09-1.32,1.61c-0.42,0.51-0.83,0.97-1.21,1.38c-0.39,0.41-0.94,1.03-0.95,0.99c-0.05-0.14,0.49-2.38,0.88-3.71
					c0.39-1.33,0.8-2.66,1.25-3.99c0.45-1.33,0.91-2.62,1.38-3.88c0.47-1.26,0.91-2.4,1.32-3.43c0.41-1.03,0.77-1.9,1.08-2.61
					c0.31-0.71,0.52-1.18,0.62-1.4c0.15-0.32-0.02-0.73-0.5-1.23c-0.48-0.5-1.07-0.97-1.75-1.42c-0.68-0.45-1.36-0.8-2.02-1.06
					c-0.66-0.26-1.09-0.33-1.29-0.2c-0.3,0.95-0.68,1.99-1.16,3.13c-0.47,1.14-0.95,2.26-1.42,3.34c-0.47,1.08-0.91,2.06-1.33,2.93
					c-0.41,0.87-0.72,1.51-0.91,1.9c-0.25-0.4-0.64-0.75-1.18-1.06c-0.54-0.31-1.13-0.56-1.77-0.75c-0.65-0.19-1.29-0.33-1.94-0.43
					c-0.65-0.1-1.21-0.15-1.68-0.15c-0.3,0-0.67,0.18-1.12,0.54c-0.45,0.36-0.92,0.87-1.42,1.51c-0.5,0.65-1,1.41-1.49,2.3
					c-0.5,0.88-0.95,1.84-1.36,2.87c-0.1,0.26-0.15,0.56-0.25,0.82c-0.29,0.37-0.6,0.77-0.89,1.14c-0.47,0.6-0.96,1.21-1.47,1.83
					c-0.51,0.62-1.01,1.23-1.51,1.83c-0.5,0.6-0.99,1.16-1.47,1.7c-0.48,0.54-1.32,1.43-1.32,1.4c-0.04-0.14,0.6-2.4,1.04-3.62
					c0.45-1.22,0.91-2.36,1.38-3.43s0.91-2,1.33-2.78c0.41-0.78,0.69-1.35,0.84-1.7c0.15-0.32-0.01-0.71-0.47-1.16
					c-0.46-0.45-1.01-0.87-1.66-1.27c-0.65-0.4-1.28-0.74-1.88-1.03c-0.61-0.29-0.98-0.43-1.1-0.43c0,0.1-0.09,0.34-0.26,0.73
					c-0.17,0.39-0.42,0.88-0.75,1.47c-0.12,0.2-0.25,0.42-0.37,0.67c-0.12,0.25-0.27,0.51-0.45,0.78c-0.37-0.45-0.89-0.88-1.57-1.29
					c-0.67-0.41-1.38-0.76-2.13-1.06c-0.75-0.3-1.47-0.54-2.18-0.73s-1.29-0.28-1.74-0.28c-0.3,0-0.65,0.2-1.06,0.6
					c-0.41,0.4-0.85,0.93-1.31,1.59c-0.46,0.66-0.91,1.42-1.34,2.28c-0.44,0.86-0.83,1.74-1.2,2.63c-0.36,0.9-0.65,1.79-0.86,2.67
					c-0.21,0.88-0.32,1.69-0.32,2.41c0,0.42,0.27,0.89,0.8,1.4c0.54,0.51,1.17,0.99,1.9,1.45c0.73,0.46,1.49,0.88,2.26,1.27
					c0.77,0.39,1.4,0.68,1.9,0.88c0.25,0.15,0.5,0.22,0.75,0.22c0.17,0,0.48-0.31,0.91-0.93c0.43-0.62,1.42-2.33,1.51-2.39v0.3
					c0,0.3,0.15,0.63,0.45,1.01c0.3,0.37,0.67,0.75,1.12,1.12c0.45,0.37,0.93,0.73,1.44,1.06c0.51,0.34,0.98,0.62,1.4,0.84
					c0.22,0.17,0.47,0.32,0.73,0.43c0.26,0.11,0.49,0.17,0.69,0.17c0.12,0,0.38-0.19,0.77-0.56c0.38-0.37,0.84-0.86,1.36-1.45
					c0.52-0.6,1.09-1.28,1.72-2.05c0.62-0.77,0.76-0.95,1.38-1.78c0.02-0.03,0.51-0.73,0.56-0.7c0.03,0.01-0.02,0.51-0.04,0.75
					c-0.02,0.35,0.15,0.66,0.44,0.98c0.3,0.32,0.68,0.63,1.16,0.91c0.47,0.29,0.98,0.55,1.53,0.8c0.55,0.25,1.07,0.46,1.57,0.63
					c0.5,0.17,0.93,0.31,1.31,0.41c0.37,0.1,0.61,0.15,0.71,0.15c0.1,0,0.28-0.15,0.54-0.45c0.26-0.3,0.57-0.71,0.93-1.23
					c0.36-0.52,0.76-1.14,1.19-1.86c0.44-0.72,0.9-1.49,1.4-2.31c-0.22,1.17-0.34,2.14-0.34,2.91c0,0.42,0.29,0.83,0.86,1.23
					c0.57,0.4,1.23,0.75,1.96,1.06c0.73,0.31,1.45,0.56,2.15,0.75c0.7,0.19,1.16,0.29,1.38,0.32h0.04h0.04
					c0.07,0,0.27-0.17,0.58-0.5c0.31-0.34,0.7-0.78,1.16-1.34c0.46-0.56,0.97-1.19,1.55-1.9c0.57-0.71,1.14-1.44,1.72-2.18
					c0.12-0.15,0.34-0.48,0.37-0.47c0.03,0.01-0.14,0.75-0.14,1.07c0,0.42,0.27,0.89,0.8,1.4c0.54,0.51,1.17,0.99,1.9,1.45
					c0.73,0.46,1.49,0.88,2.26,1.27c0.77,0.39,1.4,0.68,1.9,0.88c0.25,0.15,0.5,0.22,0.75,0.22c0.17,0,0.48-0.31,0.91-0.93
					c0.43-0.62,1.46-2.39,1.51-2.39c0.02,0-0.07,0.32,0.09,0.74c0.11,0.28,0.39,0.63,0.62,0.87c0.33,0.35,0.41,0.44,0.86,0.82
					c0.45,0.37,0.93,0.73,1.44,1.06c0.51,0.34,0.98,0.62,1.4,0.84c0.22,0.17,0.47,0.32,0.73,0.43c0.26,0.11,0.49,0.17,0.69,0.17
					c0.12,0,0.38-0.19,0.77-0.56c0.38-0.37,0.84-0.86,1.36-1.45c0.52-0.6,1.09-1.28,1.72-2.05c0.62-0.77,1.24-1.57,1.87-2.39
					c1.32-1.7,2.8-3.65,4.38-5.78c0.03,0.03,0.05,0.07,0.08,0.11c0.51,0.55,1.08,0.96,1.72,1.23c0.63,0.27,1.28,0.4,1.92,0.37
					c0.92-0.05,1.81-0.32,2.67-0.8c0.86-0.49,2.35-1.62,2.37-1.59c0.03,0.04-0.85,2.22-1.44,3.28c-0.58,1.07-1.22,2.02-1.9,2.85
					c-0.68,0.83-1.39,1.51-2.11,2.02c-0.72,0.51-1.4,0.77-2.05,0.77c-0.6,0-1.06-0.15-1.4-0.47c-0.34-0.31-0.6-0.65-0.8-1.03
					c-0.2-0.37-0.37-0.72-0.5-1.03c-0.14-0.31-0.32-0.47-0.54-0.47c-0.15,0-0.3,0.16-0.45,0.48c-0.15,0.32-0.25,0.73-0.3,1.21
					c-0.05,0.49-0.02,1.01,0.09,1.57c0.11,0.56,0.37,1.08,0.76,1.57c0.4,0.48,0.96,0.89,1.7,1.21c0.73,0.32,1.68,0.49,2.85,0.49
					c1.27,0,2.58-0.47,3.94-1.42c1.36-0.95,2.61-2.21,3.75-3.81c1.14-1.59,2.1-3.43,2.87-5.5c0.77-2.08,1.22-4.25,1.34-6.51
					C223.29,18.25,223.12,16.84,222.69,15.66z M150.65,25.27c-0.53,0.87-1.08,1.72-1.62,2.56c-0.55,0.83-1.08,1.62-1.59,2.35
					c-0.51,0.73-0.97,1.35-1.36,1.85c-0.4,0.5-0.72,0.83-0.95,0.99c-0.24,0.16-0.37,0.11-0.39-0.17c0.07-0.5,0.22-1.1,0.43-1.81
					c0.21-0.71,0.47-1.46,0.78-2.24s0.66-1.55,1.05-2.31c0.38-0.76,0.78-1.44,1.19-2.05c0.41-0.61,0.82-1.1,1.23-1.47
					s0.81-0.56,1.21-0.56c0.3,0,0.58,0.04,0.84,0.11s0.49,0.17,0.69,0.3C151.69,23.57,151.18,24.39,150.65,25.27z M173.11,22.67
					c-0.09,0.31-0.17,0.62-0.24,0.91c-0.57,0.97-1.17,1.93-1.79,2.89c-0.62,0.96-1.22,1.87-1.79,2.72
					c-0.57,0.86-1.12,1.64-1.64,2.35s-1.35,1.75-1.38,1.73c-0.06-0.03,0-2.22,0.62-4.07c0.47-1.4,0.93-2.72,1.55-3.92
					c0.62-1.19,1.3-2.18,2.03-2.97c0.73-0.78,1.41-1.18,2.03-1.18c0.25,0,0.44,0.06,0.58,0.19c0.14,0.12,0.26,0.26,0.36,0.41
					C173.31,22.06,173.2,22.36,173.11,22.67z M194.35,25.27c-0.53,0.87-1.08,1.72-1.62,2.56c-0.55,0.83-1.08,1.62-1.59,2.35
					c-0.51,0.73-0.97,1.35-1.36,1.85c-0.4,0.5-0.72,0.83-0.95,0.99c-0.24,0.16-0.37,0.11-0.39-0.17c0.07-0.5,0.22-1.1,0.43-1.81
					c0.21-0.71,0.47-1.46,0.78-2.24c0.31-0.78,0.66-1.55,1.05-2.31c0.38-0.76,0.78-1.44,1.19-2.05c0.41-0.61,0.82-1.1,1.23-1.47
					s0.81-0.56,1.21-0.56c0.3,0,0.58,0.04,0.84,0.11s0.49,0.17,0.69,0.3C195.39,23.57,194.88,24.39,194.35,25.27z M217.26,21.76
					c-0.39,0.47-0.8,0.91-1.25,1.31c-0.45,0.4-0.9,0.72-1.34,0.95c-0.45,0.24-0.82,0.34-1.12,0.32c-0.4-0.02-0.72-0.2-0.95-0.52
					c-0.24-0.32-0.42-0.7-0.54-1.14c-0.12-0.44-0.21-0.88-0.24-1.34c-0.04-0.46-0.04-0.83-0.02-1.1c0.02-0.77,0.24-1.52,0.65-2.26
					c0.41-0.73,0.88-1.36,1.4-1.88c0.52-0.52,1.04-0.88,1.57-1.06c0.52-0.19,0.93-0.13,1.23,0.17c0.55,0.57,0.94,1.26,1.19,2.07
					c0.25,0.81,0.35,1.83,0.3,3.08C217.94,20.81,217.65,21.28,217.26,21.76z"/>
			</g>
			<g>
				<path class="st0" d="M238.85,15.66c-0.42-1.18-0.98-2.16-1.68-2.93c-0.7-0.77-1.46-1.34-2.29-1.72
					c-0.83-0.37-1.61-0.56-2.33-0.56c-0.97,0-1.98,0.19-3.02,0.58s-2.01,0.99-2.89,1.81c-0.88,0.82-1.64,1.88-2.26,3.19
					c-0.62,1.31-0.98,2.88-1.08,4.72c-0.05,1.02,0.07,1.92,0.37,2.71s0.7,1.45,1.21,2c0.51,0.55,1.08,0.96,1.72,1.23
					c0.63,0.27,1.28,0.4,1.92,0.37c0.92-0.05,1.81-0.32,2.67-0.8c0.86-0.49,2.29-1.64,2.37-1.59c0.13,0.08-0.85,2.22-1.44,3.28
					c-0.58,1.07-1.22,2.02-1.9,2.85c-0.68,0.83-1.39,1.51-2.11,2.02c-0.72,0.51-1.4,0.77-2.05,0.77c-0.6,0-1.06-0.15-1.4-0.47
					c-0.34-0.31-0.6-0.65-0.8-1.03c-0.2-0.37-0.37-0.72-0.5-1.03c-0.14-0.31-0.32-0.47-0.54-0.47c-0.15,0-0.3,0.16-0.45,0.48
					c-0.15,0.32-0.25,0.73-0.3,1.21c-0.05,0.49-0.02,1.01,0.09,1.57c0.11,0.56,0.37,1.08,0.76,1.57c0.4,0.48,0.96,0.89,1.7,1.21
					c0.73,0.32,1.68,0.49,2.85,0.49c1.27,0,2.58-0.47,3.94-1.42c1.36-0.95,2.61-2.21,3.75-3.81c1.14-1.59,2.1-3.43,2.87-5.5
					c0.77-2.08,1.22-4.25,1.34-6.51C239.45,18.25,239.28,16.84,238.85,15.66z M233.42,21.76c-0.39,0.47-0.8,0.91-1.25,1.31
					c-0.45,0.4-0.9,0.72-1.34,0.95c-0.45,0.24-0.82,0.34-1.12,0.32c-0.4-0.02-0.72-0.2-0.95-0.52c-0.24-0.32-0.42-0.7-0.54-1.14
					c-0.12-0.44-0.21-0.88-0.24-1.34c-0.04-0.46-0.04-0.83-0.02-1.1c0.02-0.77,0.24-1.52,0.65-2.26c0.41-0.73,0.88-1.36,1.4-1.88
					c0.52-0.52,1.04-0.88,1.57-1.06c0.52-0.19,0.93-0.13,1.23,0.17c0.55,0.57,0.94,1.26,1.19,2.07c0.25,0.81,0.35,1.83,0.3,3.08
					C234.1,20.81,233.81,21.28,233.42,21.76z"/>
			</g>
		</g>
	</g>
</g>
</svg>
